# xmcd
#
# Track frame offsets:
#  150
#  10915
#  28595
#  42000
#  61275
#  70457
#  86895
#  101142
#  118965
#  133487
#
# Disc length: 2018 seconds
#
# Revision: 5
# Processed by: cddbd v1.5.1PL0 Copyright (c) Steve Scherf et al.
# Submitted via: Collectorz.com_Music_Collector 6.9
#
DISCID=9307e00a
DTITLE=Garth Brooks - The Collection
DYEAR=1994
DGENRE=Country
TTITLE0=Against the Grain
TTITLE1=New Way to Fly
TTITLE2=Much Too Young (to Feel This Damn Old)
TTITLE3=Every Now and Then
TTITLE4=Mr. Right
TTITLE5=Alabama Clay
TTITLE6=Wild Horses
TTITLE7=Cold Shoulder
TTITLE8=The Night I Called the Old Man Out
TTITLE9=The Cowboy Song
EXTD=
EXTT0=
EXTT1=
EXTT2=
EXTT3=
EXTT4=
EXTT5=
EXTT6=
EXTT7=
EXTT8=
EXTT9=
PLAYORDER=
